# xmcd
#
# Track frame offsets:
#	150
#	13932
#	30159
#	45665
#	59682
#	75340
#	93318
#	113108
#	130167
#	146362
#	161403
#	175639
#	192018
#	208709
#	225273
#	244362
#	260195
#	273655
#	292017
#	308010
#	322272
#	339078
#
# Disc length: 4746 seconds
#
# Revision: 1
# Processed by: cddbd v1.5.2PL0 Copyright (c) Steve Scherf et al.
# Submitted via: audiograbber 1.83.01
#
DISCID=32128816
DTITLE=Various Artist - Hit Country 2013
DYEAR=2013
DGENRE=Country
TTITLE0=McAlister Kemp - Country Proud
TTITLE1=Kip Moore - Somethin' 'Bout a Truck
TTITLE2=Carrie Underwood - Good Girl
TTITLE3=Jasmine Rae - I Faked It
TTITLE4=Lee Kernaghan - Fire
TTITLE5=Dierks Bentley - Home
TTITLE6=Eric Church - Springsteen
TTITLE7=Troy Cassar Daley - Country Is
TTITLE8=Zac Brown Band - Keep Me in Mind
TTITLE9=Craig Campbell - When I Get It
TTITLE10=The McClymonts - How Long Have You Known
TTITLE11=Kelly Clarkson - Mr Know It All
TTITLE12=Baylou - Target on My Heart
TTITLE13=Eli Young Band - Even If It Breaks Your Heart
TTITLE14=Miranda Lambert - Over You
TTITLE15=Doc Walker - Country Girl
TTITLE16=Dean Brody - Little Yellow Blanket
TTITLE17=Morgan Evans - Live Each Day
TTITLE18=Jake Owen - Alone With You
TTITLE19=Emerson Drive - Sleep It Off
TTITLE20=Peter McWhirter - How Can I Let You Go
TTITLE21=Jetty Road - Sweet Goodbye
EXTD=
EXTT0=
EXTT1=
EXTT2=
EXTT3=
EXTT4=
EXTT5=
EXTT6=
EXTT7=
EXTT8=
EXTT9=
EXTT10=
EXTT11=
EXTT12=
EXTT13=
EXTT14=
EXTT15=
EXTT16=
EXTT17=
EXTT18=
EXTT19=
EXTT20=
EXTT21=
PLAYORDER=
